<?xml version="1.0" encoding="UTF-8" standalone="no"?>
<svg
   xmlns:dc="http://purl.org/dc/elements/1.1/"
   xmlns:cc="http://creativecommons.org/ns#"
   xmlns:rdf="http://www.w3.org/1999/02/22-rdf-syntax-ns#"
   xmlns:svg="http://www.w3.org/2000/svg"
   xmlns="http://www.w3.org/2000/svg"
   xmlns:sodipodi="http://sodipodi.sourceforge.net/DTD/sodipodi-0.dtd"
   xmlns:inkscape="http://www.inkscape.org/namespaces/inkscape"
   width="210mm"
   height="297mm"
   viewBox="0 0 210 297"
   version="1.1"
   id="svg8"
   inkscape:version="1.0 (4035a4fb49, 2020-05-01)"
   sodipodi:docname="eShell.svg">
  <defs
     id="defs2">
    <rect
       x="68.791667"
       y="58.208333"
       width="3.0906467"
       height="41.207828"
       id="rect18" />
  </defs>
  <sodipodi:namedview
     id="base"
     pagecolor="#ffffff"
     bordercolor="#666666"
     borderopacity="1.0"
     inkscape:pageopacity="0.0"
     inkscape:pageshadow="2"
     inkscape:zoom="0.7"
     inkscape:cx="581.95226"
     inkscape:cy="646.72954"
     inkscape:document-units="mm"
     inkscape:current-layer="layer1"
     inkscape:document-rotation="0"
     showgrid="false"
     inkscape:window-width="1920"
     inkscape:window-height="1137"
     inkscape:window-x="-8"
     inkscape:window-y="-8"
     inkscape:window-maximized="1" />
  <metadata
     id="metadata5">
    <rdf:RDF>
      <cc:Work
         rdf:about="">
        <dc:format>image/svg+xml</dc:format>
        <dc:type
           rdf:resource="http://purl.org/dc/dcmitype/StillImage" />
        <dc:title></dc:title>
      </cc:Work>
    </rdf:RDF>
  </metadata>
  <g
     inkscape:label="Layer 1"
     inkscape:groupmode="layer"
     id="layer1">
    <text
       xml:space="preserve"
       style="font-style:normal;font-weight:normal;font-size:10.5833px;line-height:1.25;font-family:sans-serif;fill:#000000;fill-opacity:1;stroke:none;stroke-width:0.264583"
       x="48.380955"
       y="117.17262"
       id="text12"><tspan
         sodipodi:role="line"
         id="tspan10"
         x="48.380955"
         y="117.17262"
         style="stroke-width:0.264583" /></text>
    <text
       xml:space="preserve"
       id="text16"
       style="fill:black;fill-opacity:1;line-height:1.25;stroke:none;font-family:sans-serif;font-style:normal;font-weight:normal;font-size:10.58333333px;white-space:pre;shape-inside:url(#rect18);" />
    <text
       xml:space="preserve"
       style="font-size:10.5833px;line-height:1.25;font-family:Ebrima;-inkscape-font-specification:Ebrima;stroke-width:0.264583"
       x="162.90077"
       y="175.99698"
       id="text1023"><tspan
         sodipodi:role="line"
         id="tspan1021"
         x="162.90077"
         y="175.99698"
         style="stroke-width:0.264583" /></text>
    <g
       id="g1077"
       inkscape:export-xdpi="96"
       inkscape:export-ydpi="96">
      <path
         id="path2"
         d="m 90.21017,98.64817 c -11.64349,-2.12071 -20.84951,0.0989 -24.51854,6.45394 -2.73799,4.74229 -1.95535,11.02979 1.89803,17.75059 0.32798,0.57205 1.05761,0.76992 1.62964,0.44194 0.57205,-0.32798 0.76992,-1.05761 0.44193,-1.62964 -3.47131,-6.05397 -4.14673,-11.48051 -1.90197,-15.36863 3.04794,-5.27921 11.25963,-7.25927 22.02316,-5.29867 0.64874,0.11815 1.27044,-0.31197 1.38858,-0.96072 0.11815,-0.64874 -0.31197,-1.27043 -0.96072,-1.38858 z m -16.56618,32.37419 c 4.70802,5.17372 10.82443,10.02627 17.80013,14.05349 16.89034,9.75166 34.87076,12.35807 43.73232,6.31545 0.54481,-0.37149 0.68533,-1.11426 0.31383,-1.65913 -0.37148,-0.5448 -1.11426,-0.68533 -1.65906,-0.31383 -7.93087,5.40786 -25.01165,2.93189 -41.19337,-6.41036 -6.76676,-3.91022 -12.68939,-8.60904 -17.22763,-13.59621 -0.44415,-0.48713 -1.19873,-0.52295 -1.68647,-0.0794 -0.4877,0.4438 -0.52329,1.19892 -0.0795,1.68665 z"
         style="fill:#47848f;fill-rule:evenodd;stroke-width:0.596979" />
      <path
         sodipodi:nodetypes="cccsccsscc"
         id="path98"
         d="m 114.87296,98.24932 c -6.89333,1.47693 -16.34687,4.89368 -23.39362,8.9621 -17.43597,10.06626 -28.80962,24.91016 -27.23002,35.67549 0.0958,0.65243 0.70229,1.10369 1.35467,1.00794 0.65244,-0.0958 1.10369,-0.70229 1.00794,-1.35467 -1.4026,-9.55943 9.37855,-23.62964 26.06113,-33.2613 6.83542,-3.94663 16.05674,-7.27205 22.69993,-8.69525 0.64479,-0.13815 1.05545,-0.77285 0.91731,-1.41759 -0.13814,-0.6448 -0.77285,-1.05546 -1.41758,-0.91732 z"
         style="fill:#47848f;fill-rule:evenodd;stroke-width:0.596979" />
      <path
         sodipodi:nodetypes="sscccccsssss"
         id="path4"
         d="m 140.34396,133.01755 c -1.25518,1.25518 4.83443,-6.42441 5.75445,-7.77678 5.17494,-7.60685 3.44959,-14.94985 0.34047,-20.33429 -2.69422,-4.66659 -11.03577,-7.6595 -18.60547,-7.758 -0.65937,-0.009 -1.20083,0.51899 -1.20936,1.17832 -0.009,0.65936 0.51898,1.20082 1.17831,1.20936 6.80796,0.0885 14.36036,2.74026 16.56859,6.56404 2.49624,4.3236 4.51945,10.54047 0.13053,17.2327 -0.95846,1.46147 -4.71715,6.64978 -5.9801,8.14182 -0.42602,0.5033 -0.3634,1.25664 0.13989,1.6827 0.5033,0.42604 2.149,-0.60618 1.68271,-0.13989 z"
         style="fill:#47848f;fill-rule:evenodd;stroke-width:0.596979" />
      <path
         sodipodi:nodetypes="scsccccss"
         id="path94"
         d="m 127.1231,116.42786 c 0.42667,-2.83125 -0.13569,-8.07511 -1.72728,-13.33751 -2.85771,-9.77665 -8.82407,-15.80728 -15.55975,-18.79793 -0.60266,-0.26758 -1.30816,0.004 -1.57572,0.60671 -0.2676,0.60265 0.004,1.30816 0.60671,1.57573 5.94516,2.63985 10.47298,8.48468 13.24316,17.26648 1.78561,4.79243 2.10569,7.60983 2.4667,11.63928 -0.19694,0.62934 0.0704,1.1492 1.05015,1.69648 0.57569,0.32159 1.49603,-0.64924 1.49603,-0.64924 z"
         style="fill:#47848f;fill-rule:evenodd;stroke-width:0.596979" />
      <path
         id="path6"
         d="m 84.77688,149.40774 c 3.98615,11.13068 10.50743,17.984 17.84073,17.984 5.3481,0 10.2961,-3.64563 14.15438,-10.06388 0.33974,-0.56514 0.15701,-1.29872 -0.40814,-1.63847 -0.56515,-0.33974 -1.29873,-0.15701 -1.63847,0.40814 -3.46755,5.76819 -7.7267,8.90634 -12.10793,8.90634 -6.09158,0 -11.90795,-6.11248 -15.59251,-16.40082 -0.22232,-0.6208 -0.90579,-0.94382 -1.52659,-0.72151 -0.6208,0.22232 -0.94383,0.9058 -0.72151,1.5266 z"
         style="fill:#47848f;fill-rule:evenodd;stroke-width:0.596979" />
      <path
         id="path8"
         d="m 143.40879,147.26736 c 0,-3.15605 -2.55848,-5.71446 -5.71447,-5.71446 -3.15605,0 -5.71452,2.55847 -5.71452,5.71446 0,3.15605 2.55847,5.71453 5.71452,5.71453 3.15599,0 5.71447,-2.55848 5.71447,-5.71453 z m -2.38792,0 c 0,1.83721 -1.48934,3.32661 -3.32655,3.32661 -1.8372,0 -3.32661,-1.48934 -3.32661,-3.32661 0,-1.8372 1.48935,-3.32654 3.32661,-3.32654 1.83721,0 3.32655,1.48934 3.32655,3.32654 z"
         style="fill:#47848f;fill-rule:evenodd;stroke-width:0.596979" />
      <path
         id="path10"
         d="m 66.92558,152.98046 c 3.15605,0 5.71447,-2.55848 5.71447,-5.71453 0,-3.15605 -2.55848,-5.71446 -5.71447,-5.71446 -3.15605,0 -5.71446,2.55847 -5.71446,5.71446 0,3.15605 2.55847,5.71453 5.71446,5.71453 z m 0,-2.38792 c -1.8372,0 -3.32655,-1.48935 -3.32655,-3.32661 0,-1.8372 1.48935,-3.32655 3.32655,-3.32655 1.83721,0 3.32655,1.48935 3.32655,3.32655 0,1.83721 -1.48934,3.32661 -3.32655,3.32661 z"
         style="fill:#47848f;fill-rule:evenodd;stroke-width:0.596979" />
      <path
         id="path12"
         d="m 104.35486,89.9908 c 3.15605,0 5.71446,-2.55847 5.71446,-5.71446 0,-3.15605 -2.55847,-5.71447 -5.71446,-5.71447 -3.15605,0 -5.71447,2.55848 -5.71447,5.71447 0,3.15605 2.55848,5.71446 5.71447,5.71446 z m 0,-2.38792 c -1.83721,0 -3.32655,-1.48934 -3.32655,-3.32654 0,-1.83721 1.48934,-3.32655 3.32655,-3.32655 1.8372,0 3.32655,1.48934 3.32655,3.32655 0,1.8372 -1.48935,3.32654 -3.32655,3.32654 z"
         style="fill:#47848f;fill-rule:evenodd;stroke-width:0.596979" />
      <g
         style="font-style:normal;font-variant:normal;font-weight:bold;font-stretch:normal;font-size:23.9491px;line-height:1.25;font-family:'Segoe Print';-inkscape-font-specification:'Segoe Print Bold';stroke-width:0.598728"
         id="text1019"
         transform="matrix(0.99308544,0,0,1.0069627,-58.58631,-44.60119)"
         aria-label="e">
        <path
           id="path1059"
           style="font-style:normal;font-variant:normal;font-weight:bold;font-stretch:normal;font-family:'Segoe Print';-inkscape-font-specification:'Segoe Print Bold';stroke-width:0.598728"
           d="m 152.05588,172.95728 q 0,1.21617 -2.04643,2.91178 -2.04643,1.68392 -4.61909,1.68392 -1.97627,0 -3.11058,-1.23955 -1.13431,-1.25125 -1.13431,-3.47309 0,-3.27429 2.3154,-6.13929 2.31539,-2.86501 4.94651,-2.86501 1.30972,0 2.10491,0.83027 0.79518,0.83026 0.79518,1.97627 0,2.03473 -1.95288,3.88237 -1.95288,1.83594 -5.00499,2.53758 -0.35081,0.0819 -0.35081,0.42098 0,0.5613 0.49114,1.07583 0.50284,0.50284 1.3331,0.50284 2.35048,0 4.66587,-2.42064 0.44437,-0.46775 0.86535,-0.46775 0.70163,0 0.70163,0.78349 z m -7.8466,-2.06982 q 1.84763,-0.3742 3.2509,-1.57868 1.41496,-1.20447 1.41496,-2.18675 0,-0.3859 -0.22218,-0.64317 -0.21049,-0.26896 -0.54962,-0.26896 -1.01737,0 -2.25692,1.49682 -1.23955,1.49682 -1.63714,3.18074 z" />
      </g>
      <path
         d="m 103.33075,122.37268 q 0,-1.31649 -0.66227,-1.60353 -0.66227,-0.29696 -1.65087,-0.29696 -2.03481,0 -3.6953,0.83147 -1.65087,0.82156 -1.65087,1.97967 0,0.83147 0.72945,1.45507 0.73906,0.6137 3.20578,1.35609 2.38994,0.71268 3.39775,1.47486 1.0174,0.75228 1.0174,1.82131 0,1.07892 -1.41092,2.33602 -1.41094,1.2472 -3.40735,1.90049 -1.98681,0.6533 -3.37855,0.6533 -1.16137,0 -1.76606,-0.28705 -0.59508,-0.27716 -0.59508,-0.70279 0,-0.29695 0.17277,-0.72259 0.18237,-0.43552 0.36473,-0.43552 0.19196,0 0.39352,0.0692 1.02701,0.39594 2.03481,0.39594 1.81405,0 3.84886,-1.08883 2.0348,-1.09872 2.0348,-2.04896 0,-0.40585 -0.62388,-0.77208 -0.61428,-0.37614 -3.129,-1.19771 -3.11939,-1.01953 -3.83925,-1.97968 -0.71026,-0.97004 -0.71026,-2.03907 0,-2.05887 2.29395,-3.31597 2.29396,-1.267 4.79907,-1.267 1.66048,0 2.55311,0.58401 0.89263,0.57411 0.89263,1.27689 0,0.33655 -0.20156,0.97995 -0.20156,0.64339 -1.01741,0.64339 z"
         style="font-style:normal;font-variant:normal;font-weight:normal;font-stretch:normal;font-size:19.9621px;line-height:1.25;font-family:'Segoe Print';-inkscape-font-specification:'Segoe Print';stroke-width:0.499054"
         id="path1043" />
      <path
         d="m 106.80234,130.31616 q 3.57051,-6.80021 5.88366,-6.80021 0.61428,0 0.9982,0.72259 0.38393,0.72258 0.62388,3.20707 0.23996,2.64288 1.0846,3.82079 0.43191,0.60381 0.43191,0.89086 0,0.25736 -0.28794,0.47512 -0.28795,0.21777 -0.61428,0.21777 -0.74865,0 -1.32455,-0.86117 -0.57589,-0.87105 -0.73905,-3.0487 -0.16317,-2.05887 -0.34554,-2.69237 -0.18236,-0.6335 -0.60468,-0.6335 -1.0078,0 -4.06002,5.43423 -0.91182,1.62333 -1.34373,2.12816 -0.43192,0.49491 -0.78706,0.49491 -0.42231,0 -0.71025,-0.25735 -0.28795,-0.25736 -0.28795,-0.6335 0,-0.27716 0.15357,-1.06903 1.18057,-6.28549 1.86204,-12.4324 0.15357,-1.43527 0.48951,-1.91039 0.34553,-0.47512 0.57589,-0.47512 0.41271,0 0.74865,0.34643 0.33593,0.34645 0.33593,0.96016 0,1.8213 -0.86383,4.99869 -0.42231,1.57384 -0.89263,3.99896 -0.47031,2.42511 -0.47031,2.99921 0,0.11879 0.10559,0.11879 z"
         style="font-style:normal;font-variant:normal;font-weight:normal;font-stretch:normal;font-size:19.9621px;line-height:1.25;font-family:'Segoe Print';-inkscape-font-specification:'Segoe Print';stroke-width:0.499054"
         id="path1045" />
      <path
         d="m 125.23372,130.06375 q 0,1.00964 -1.73725,2.435 -1.72768,1.42538 -3.57051,1.42538 -1.54531,0 -2.38994,-0.94035 -0.83504,-0.94036 -0.83504,-2.62309 0,-2.83093 1.85244,-5.38473 1.85244,-2.55378 4.05041,-2.55378 0.71987,0 1.17098,0.48501 0.46071,0.48503 0.46071,1.16802 0,1.52435 -1.44932,2.92003 -1.44932,1.39568 -3.87765,2.74186 -0.49911,0.26726 -0.49911,0.69288 0,0.82158 0.46072,1.3165 0.46071,0.49492 1.36294,0.49492 2.0636,0 4.21358,-2.35583 0.31674,-0.32664 0.47991,-0.32664 0.30713,0 0.30713,0.50482 z m -6.6707,-1.54415 q 4.06961,-2.4944 4.06961,-4.00886 0,-0.5939 -0.5183,-0.5939 -0.88302,0 -1.99641,1.33628 -1.10379,1.33628 -1.5549,3.26648 z"
         style="font-style:normal;font-variant:normal;font-weight:normal;font-stretch:normal;font-size:19.9621px;line-height:1.25;font-family:'Segoe Print';-inkscape-font-specification:'Segoe Print';stroke-width:0.499054"
         id="path1047" />
      <path
         d="m 130.46659,116.39403 q 0.69107,0 0.69107,0.91066 0,0.81167 -0.83504,3.86037 -0.5279,1.92029 -0.81584,4.23652 -0.28795,2.31624 -0.28795,3.63272 0,1.63324 0.20156,3.24668 0.0384,0.30685 0.0384,0.44543 0,0.49491 -0.32634,0.85126 -0.32633,0.35634 -0.69106,0.35634 -0.50871,0 -0.71027,-0.65329 -0.19196,-0.6533 -0.19196,-2.10836 0,-3.31597 0.76785,-8.21568 0.77745,-4.89971 1.22856,-5.73118 0.46071,-0.83147 0.93102,-0.83147 z"
         style="font-style:normal;font-variant:normal;font-weight:normal;font-stretch:normal;font-size:19.9621px;line-height:1.25;font-family:'Segoe Print';-inkscape-font-specification:'Segoe Print';stroke-width:0.499054"
         id="path1049" />
      <path
         d="m 134.37305,115.85949 q 0.69106,0 0.69106,0.91066 0,0.81167 -0.83503,3.86037 -0.52791,1.92029 -0.81585,4.23652 -0.28794,2.31624 -0.28794,3.63272 0,1.63324 0.20156,3.24668 0.0384,0.30685 0.0384,0.44543 0,0.49491 -0.32634,0.85126 -0.32633,0.35634 -0.69106,0.35634 -0.50871,0 -0.71027,-0.65329 -0.19196,-0.6533 -0.19196,-2.10836 0,-3.31597 0.76785,-8.21568 0.77746,-4.89971 1.22857,-5.73118 0.4607,-0.83147 0.93101,-0.83147 z"
         style="font-style:normal;font-variant:normal;font-weight:normal;font-stretch:normal;font-size:19.9621px;line-height:1.25;font-family:'Segoe Print';-inkscape-font-specification:'Segoe Print';stroke-width:0.499054"
         id="path1051" />
    </g>
  </g>
</svg>
